<svg width="14" height="14" viewBox="0 0 14 14" fill="none" xmlns="http://www.w3.org/2000/svg">
<g clip-path="url(#clip0_768_352)">
<path d="M0.875 0.875C1.35898 0.875 1.75 1.26602 1.75 1.75V10.9375C1.75 11.1781 1.94687 11.375 2.1875 11.375H13.125C13.609 11.375 14 11.766 14 12.25C14 12.734 13.609 13.125 13.125 13.125H2.1875C0.978906 13.125 0 12.1461 0 10.9375V1.75C0 1.26602 0.391016 0.875 0.875 0.875ZM3.5 3.5C3.5 3.01602 3.89102 2.625 4.375 2.625H9.625C10.109 2.625 10.5 3.01602 10.5 3.5C10.5 3.98398 10.109 4.375 9.625 4.375H4.375C3.89102 4.375 3.5 3.98398 3.5 3.5ZM4.375 5.25H7.875C8.35898 5.25 8.75 5.64102 8.75 6.125C8.75 6.60898 8.35898 7 7.875 7H4.375C3.89102 7 3.5 6.60898 3.5 6.125C3.5 5.64102 3.89102 5.25 4.375 5.25ZM4.375 7.875H11.375C11.859 7.875 12.25 8.26602 12.25 8.75C12.25 9.23398 11.859 9.625 11.375 9.625H4.375C3.89102 9.625 3.5 9.23398 3.5 8.75C3.5 8.26602 3.89102 7.875 4.375 7.875Z" fill="#6B7280"/>
</g>
<defs>
<clipPath id="clip0_768_352">
<path d="M0 0H14V14H0V0Z" fill="white"/>
</clipPath>
</defs>
</svg>
