<?xml version="1.0" encoding="iso-8859-1"?>
<!-- Generator: Adobe Illustrator 25.0.0, SVG Export Plug-In . SVG Version: 6.00 Build 0)  -->
<svg version="1.1" id="Graphic_Element" xmlns="http://www.w3.org/2000/svg" xmlns:xlink="http://www.w3.org/1999/xlink" x="0px"
	 y="0px" viewBox="0 0 3000 3000" style="enable-background:new 0 0 3000 3000;" xml:space="preserve">
<g>
	<path d="M1482.573,230.887c99.805,0.433,188.351,9.3,275.905,27.987c105.604,22.54,206.8,57.586,303.688,105.297
		c72.209,35.558,140.806,76.95,205.289,125.12c36.783,27.478,71.648,57.296,105.248,88.533
		c64.273,59.753,120.745,126.31,171.194,198.067c68.47,97.389,120.842,202.9,160.249,315.093
		c20.343,57.918,35.974,117.072,47.408,177.29c8.745,46.056,15.994,92.34,19.232,139.263c2.913,42.219,4.982,84.43,3.943,126.692
		c-1.357,55.152-5.609,110.113-14.264,164.682c-15.945,100.532-42.068,198.212-82.155,291.896
		c-30.36,70.953-66.245,139.006-108.86,203.458c-25.915,39.194-53.698,76.998-83.667,113.149
		c-45.583,54.985-94.612,106.701-149.059,153.054c-55.751,47.465-114.662,90.566-177.314,128.606
		c-53.115,32.25-108.42,60.108-165.747,83.821c-57.303,23.703-116.132,43.062-176.374,58.045
		c-50.106,12.462-100.776,21.51-151.974,28.25c-64.105,8.44-128.454,11.244-192.95,9.794
		c-85.05-1.913-169.229-11.998-252.363-30.388c-71.856-15.895-141.938-37.533-210.091-65.25
		c-50.829-20.672-99.851-45.075-147.583-72.207c-89.65-50.959-169.945-114.299-245.084-184.412
		c-34.612-32.297-66.005-67.697-96.115-104.248c-53.94-65.478-100.655-135.842-142.116-209.727
		c-32.323-57.601-58.926-117.824-81.075-180.065c-21.771-61.182-39.012-123.506-51.389-187.303
		c-8.883-45.786-15.044-91.877-18.355-138.287c-3.517-49.304-4.167-98.685-1.76-148.178c1.952-40.131,5.912-79.96,11.319-119.698
		c8.124-59.716,20.97-118.449,37.734-176.314c44.591-153.92,116.425-294.039,214.328-420.763
		c41.007-53.078,85.342-103.245,134.158-149.396c101.311-95.781,214.074-174.852,340.66-233.681
		c74.235-34.499,151.133-61.747,230.47-81.973c46.552-11.868,93.775-20.565,141.385-26.615
		C1388.372,233.884,1440.495,229.575,1482.573,230.887z M346.301,1497.526c0,14.684-0.163,29.37,0.031,44.052
		c0.533,40.197,5.229,80.089,11.605,119.644c6.091,37.781,13.995,75.337,22.714,112.614c16.948,72.462,43.118,141.807,74.599,209.11
		c31.53,67.408,70.568,130.493,114.693,190.261c26.151,35.422,54.692,69.082,82.265,103.449c5.369,6.691,9.644,6.603,14.386-0.567
		c7.704-11.648,14.782-23.708,22.325-35.465c46.319-72.199,101.703-136.844,164.736-194.815
		c52.099-47.914,108.924-89.523,170.328-125.045c44.168-25.551,89.707-47.905,137.296-66.159
		c57.67-22.121,116.799-39.225,177.822-48.959c31.432-5.014,63.119-8.816,94.83-11.562c24.225-2.098,48.691-2.665,73.008-2.104
		c25.742,0.594,51.462,3.007,77.144,5.191c49.703,4.226,98.745,12.648,147.044,25.071c78.418,20.169,153.096,49.823,224.349,88.365
		c64.258,34.758,124.258,75.628,179.154,123.749c68.54,60.082,128.017,128.209,177.97,204.539
		c7.651,11.691,15.04,23.555,22.794,35.177c4.705,7.052,8.809,7.283,14.686,1.346c1.51-1.525,2.812-3.253,4.248-4.853
		c34.492-38.447,66.649-78.707,95.95-121.292c51.402-74.703,94.476-153.87,127.03-238.495
		c26.149-67.974,45.958-137.863,59.111-209.603c8.212-44.792,13.764-89.885,16.718-135.286c2.536-38.992,2.762-78.052,0.631-117.074
		c-1.23-22.514-2.505-45.077-5.151-67.453c-6.315-53.391-16.382-106.075-30.169-158.118
		c-16.092-60.744-36.56-119.918-62.189-177.201c-50.74-113.406-117.982-216.151-202.288-307.506
		c-36.717-39.786-75.485-77.472-117.332-111.973c-60.152-49.592-123.599-94.242-192.059-131.717
		c-90.117-49.331-185.185-85.508-285.241-108.706c-41.915-9.718-84.246-17.225-127.021-21.468
		c-32.753-3.249-65.737-4.095-98.58-6.519c-41.944-3.096-83.859-1.134-125.635,1.643c-58.655,3.899-116.753,12.569-173.944,26.557
		c-48.401,11.838-96.041,26.198-142.53,44.18c-69.694,26.958-136.053,60.613-199.703,99.727
		c-58.51,35.955-112.604,77.821-163.711,123.466c-48.454,43.276-92.221,91.162-133.048,141.674
		c-64.561,79.877-117.807,166.721-157.924,261.308c-39.901,94.077-67.923,191.524-81.215,293.106
		C349.604,1398.893,344.503,1447.968,346.301,1497.526z M1515.088,2648.507c53.841-1.701,107.372-5.541,160.62-13.138
		c50.408-7.192,100.105-17.838,148.943-32.177c68.588-20.136,134.297-47.615,197.879-80.112
		c65.547-33.5,127.51-72.798,185.991-117.525c11.948-9.138,23.689-18.567,35.217-28.229c6.224-5.216,6.347-7.404,2.423-13.705
		c-32.028-51.424-65.821-101.588-104.856-148.064c-48.224-57.416-103.222-107.488-164.71-150.208
		c-62.063-43.12-128.606-77.657-200.311-102.287c-85.776-29.463-173.9-44.372-264.438-46.028
		c-48.115-0.88-95.907,3.292-143.427,10.058c-74.939,10.671-146.731,32.558-215.516,64.021
		c-64.845,29.661-124.516,67.705-179.578,113.008c-48.583,39.971-92.694,84.305-131.74,133.698
		c-30.262,38.282-57.978,78.28-82.96,120.189c-9.056,15.193-9.381,15.745,4.201,26.331c20.057,15.634,40.155,31.276,60.971,45.866
		c132.086,92.578,276.198,157.941,434.318,191.766c49.818,10.657,99.989,18.538,150.762,21.988
		C1444.22,2646.362,1479.68,2647.052,1515.088,2648.507z"/>
	<path d="M1510.369,1689.83c-103.122,0.49-188.579-22.843-268.099-67.928c-42.109-23.875-78.743-54.944-111.305-90.604
		c-59.462-65.119-98.963-141.036-119.446-226.669c-12.41-51.88-15.86-104.61-12.882-157.915
		c4.376-78.333,25.642-151.609,64.79-219.478c36.056-62.51,82.457-115.954,141.034-158.72
		c59.137-43.176,124.407-72.218,196.097-86.3c45.829-9.002,92.139-12.299,138.963-8.324c63.193,5.365,123.355,21.559,180.572,48.531
		c44.389,20.925,84.313,48.709,120.437,81.912c55.514,51.026,96.99,111.954,126.045,181.269
		c18.933,45.166,30.309,92.378,35.732,141.15c3.939,35.424,4.992,70.9,1.475,106.199c-6.147,61.697-20.803,121.281-48.895,177.118
		c-25.312,50.312-56.452,96.415-96.523,136.174c-68.172,67.64-149.368,111.585-243.115,132.017
		C1577.001,1686.599,1538.151,1690.349,1510.369,1689.83z M1888.779,1180.49c0.381-23.431-1.614-51.014-7.88-77.92
		c-15.189-65.216-42.934-124.455-87.638-174.913c-30.138-34.018-64.423-63.166-104.548-84.986
		c-43.935-23.891-90.769-38.179-140.46-44.386c-53.041-6.626-105.276-3.086-156.506,10.986
		c-92.172,25.319-162.939,80.862-215.367,159.593c-39.154,58.798-58.6,124.78-62.298,195.192
		c-1.904,36.254,1.152,72.36,9.084,107.804c15.794,70.578,49.349,131.738,99.692,183.621
		c54.322,55.984,120.173,90.71,196.622,105.305c30.631,5.848,61.568,9.336,92.856,6.813c20.318-1.638,40.858-2.153,60.871-5.633
		c55.792-9.703,107.268-30.375,153.405-63.774c48.903-35.401,89.142-78.488,117.948-131.782
		C1875.184,1309.751,1889.521,1249.057,1888.779,1180.49z"/>
</g>
</svg>
