<?xml version="1.0" encoding="utf-8"?>
<!-- Svg Vector Icons : http://www.onlinewebfonts.com/icon -->
<!DOCTYPE svg PUBLIC "-//W3C//DTD SVG 1.1//EN" "http://www.w3.org/Graphics/SVG/1.1/DTD/svg11.dtd">
<svg version="1.1" xmlns="http://www.w3.org/2000/svg" xmlns:xlink="http://www.w3.org/1999/xlink" x="0px" y="0px" viewBox="0 0 256 256" enable-background="new 0 0 256 256" xml:space="preserve">
<metadata> Svg Vector Icons : http://www.onlinewebfonts.com/icon </metadata>
<g><g><g><path fill="#000000" d="M175.3,64V24.2c0-6.3-5.2-11.5-11.5-11.5H21.5c-6.3,0-11.5,5.2-11.5,11.5v7.5V182v5.2c0,4.2,2.5,8.3,6.1,10.2l87.7,45.4c3.9,1.9,8.5-0.8,8.5-5.2v-44.2h51.5c6.3,0,11.5-5.2,11.5-11.5v-63h-23.1v45.8c0,3.3-2.5,5.8-5.8,5.8h-34v-59.2V73.6v-1.2c0-4.2-2.5-8.3-6.1-10.2L54.6,35.7h91.9c3.3,0,5.8,2.5,5.8,5.8v22.7h23.1L175.3,64L175.3,64z"/><path fill="#000000" d="M204.9,45.1l37.5,37.5c4.8,4.8,4.8,11.9,0,16.7l-37.5,37.5c-4.8,4.8-12.1,5-16.9,0.2c-4.6-4.6-4-12.3,0.4-16.9l16.9-16.7h-65.5c-3.3,0-6.5-1.3-8.6-3.9c-5.4-5.8-4-16,2.9-19.8c1.7-1,3.9-1.5,5.8-1.5h65.5c0,0-16.7-16.7-16.9-16.7c-4.4-4.4-5-12.3-0.4-16.7C192.6,40.1,200.1,40.3,204.9,45.1z"/></g><g></g><g></g><g></g><g></g><g></g><g></g><g></g><g></g><g></g><g></g><g></g><g></g><g></g><g></g><g></g></g></g>
</svg>