<svg width="14" height="15" viewBox="0 0 14 15" fill="none" xmlns="http://www.w3.org/2000/svg">
<path d="M13.5598 4.71563C13.6473 4.95352 13.5734 5.21875 13.3848 5.38828L12.2008 6.46563C12.2309 6.69258 12.2473 6.925 12.2473 7.16016C12.2473 7.39531 12.2309 7.62773 12.2008 7.85469L13.3848 8.93203C13.5734 9.10156 13.6473 9.3668 13.5598 9.60469C13.4395 9.93008 13.2945 10.2418 13.1277 10.5426L12.9992 10.7641C12.8188 11.0648 12.6164 11.3492 12.3949 11.6172C12.2336 11.8141 11.9656 11.8797 11.725 11.8031L10.202 11.3191C9.83555 11.6008 9.43086 11.8359 8.99883 12.0137L8.65703 13.575C8.60234 13.8238 8.41094 14.0207 8.15938 14.0617C7.78203 14.1246 7.39375 14.1574 6.99727 14.1574C6.60078 14.1574 6.2125 14.1246 5.83516 14.0617C5.58359 14.0207 5.39219 13.8238 5.3375 13.575L4.9957 12.0137C4.56367 11.8359 4.15898 11.6008 3.79258 11.3191L2.27227 11.8059C2.03164 11.8824 1.76367 11.8141 1.60234 11.6199C1.38086 11.352 1.17852 11.0676 0.998047 10.7668L0.869531 10.5453C0.702735 10.2445 0.557813 9.93281 0.4375 9.60742C0.35 9.36953 0.423828 9.1043 0.6125 8.93477L1.79648 7.85742C1.76641 7.62773 1.75 7.39531 1.75 7.16016C1.75 6.925 1.76641 6.69258 1.79648 6.46563L0.6125 5.38828C0.423828 5.21875 0.35 4.95352 0.4375 4.71563C0.557813 4.39023 0.702735 4.07852 0.869531 3.77773L0.998047 3.55625C1.17852 3.25547 1.38086 2.97109 1.60234 2.70312C1.76367 2.50625 2.03164 2.44062 2.27227 2.51719L3.79531 3.00117C4.16172 2.71953 4.56641 2.48438 4.99844 2.30664L5.34023 0.745313C5.39492 0.496484 5.58633 0.299609 5.83789 0.258594C6.21523 0.192969 6.60352 0.160156 7 0.160156C7.39648 0.160156 7.78477 0.192969 8.16211 0.255859C8.41367 0.296875 8.60508 0.49375 8.65977 0.742578L9.00156 2.30391C9.43359 2.48164 9.83828 2.7168 10.2047 2.99844L11.7277 2.51445C11.9684 2.43789 12.2363 2.50625 12.3977 2.70039C12.6191 2.96836 12.8215 3.25273 13.002 3.55352L13.1305 3.775C13.2973 4.07578 13.4422 4.3875 13.5625 4.71289L13.5598 4.71563ZM7 9.34766C7.58016 9.34766 8.13656 9.11719 8.5468 8.70695C8.95703 8.29672 9.1875 7.74032 9.1875 7.16016C9.1875 6.58 8.95703 6.0236 8.5468 5.61336C8.13656 5.20312 7.58016 4.97266 7 4.97266C6.41984 4.97266 5.86344 5.20312 5.4532 5.61336C5.04297 6.0236 4.8125 6.58 4.8125 7.16016C4.8125 7.74032 5.04297 8.29672 5.4532 8.70695C5.86344 9.11719 6.41984 9.34766 7 9.34766Z" fill="#4B5563"/>
</svg>
